G04 DipTrace 3.3.1.3*
G04 BottomMask.gbr*
%MOMM*%
G04 #@! TF.FileFunction,Soldermask,Bot*
G04 #@! TF.Part,Single*
%ADD25C,3.25*%
%ADD34C,1.724*%
%ADD36C,1.724*%
%ADD38C,1.7*%
%ADD40R,1.7X1.7*%
%ADD42R,1.47X1.47*%
%ADD44C,1.47*%
%ADD46R,1.8X1.8*%
%ADD48C,1.8*%
%FSLAX35Y35*%
G04*
G71*
G90*
G75*
G01*
G04 BotMask*
%LPD*%
D48*
X2714500Y3286000D3*
D46*
X2968500D3*
D48*
X2524000Y8239000D3*
D46*
X2778000D3*
D48*
X2714500Y5826000D3*
D46*
X2968500D3*
D48*
X4429000Y2333500D3*
D46*
X4175000D3*
D48*
X3222500Y8810500D3*
D46*
Y8556500D3*
D44*
X5127500Y8620000D3*
D42*
X5381500D3*
D25*
X3635803Y2331963D3*
X3635800Y8132000D3*
D40*
X1963633Y1444499D3*
Y1698499D3*
Y1952499D3*
Y2206499D3*
Y2460499D3*
Y2714499D3*
Y2968499D3*
Y3222499D3*
Y3476499D3*
Y3730499D3*
Y3984499D3*
Y4238499D3*
Y4492499D3*
Y4746499D3*
Y5000499D3*
Y5254499D3*
Y5508499D3*
Y5762499D3*
Y6016499D3*
Y6270499D3*
Y6524499D3*
Y6778499D3*
Y7032499D3*
Y7286499D3*
Y7540499D3*
Y7794499D3*
Y8048499D3*
Y8302499D3*
Y8556499D3*
Y8810499D3*
X1455633D3*
Y8556499D3*
Y8302499D3*
Y8048499D3*
Y7794499D3*
Y7540499D3*
Y7286499D3*
Y7032499D3*
Y6778499D3*
Y6524499D3*
Y6270499D3*
Y6016499D3*
Y5762499D3*
Y5508499D3*
Y5254499D3*
Y5000499D3*
Y4746499D3*
Y4492499D3*
Y4238499D3*
Y3984499D3*
Y3730499D3*
Y3476499D3*
Y3222499D3*
Y2968499D3*
Y2714499D3*
Y2460499D3*
Y2206499D3*
Y1952499D3*
Y1698499D3*
Y1444499D3*
X2524000Y8937500D3*
D38*
X2778000D3*
D36*
X4746500Y8874000D3*
D34*
X3730500D3*
D36*
X5113407Y8041063D3*
D34*
X4097407D3*
D36*
X4746500Y8556500D3*
D34*
X3730500D3*
D40*
X2460500Y2841500D3*
D38*
Y2587500D3*
Y2333500D3*
Y2079500D3*
Y1825500D3*
Y1571500D3*
Y1317500D3*
X3222500D3*
Y1571500D3*
Y1825500D3*
Y2079500D3*
Y2333500D3*
Y2587500D3*
Y2841500D3*
D40*
X2460500Y5445000D3*
D38*
Y5191000D3*
Y4937000D3*
Y4683000D3*
Y4429000D3*
Y4175000D3*
Y3921000D3*
Y3667000D3*
X3222500D3*
Y3921000D3*
Y4175000D3*
Y4429000D3*
Y4683000D3*
Y4937000D3*
Y5191000D3*
Y5445000D3*
D40*
X2460500Y7794500D3*
D38*
Y7540500D3*
Y7286500D3*
Y7032500D3*
Y6778500D3*
Y6524500D3*
Y6270500D3*
X3222500D3*
Y6524500D3*
Y6778500D3*
Y7032500D3*
Y7286500D3*
Y7540500D3*
Y7794500D3*
D40*
X3794000Y1190500D3*
D38*
X4048000D3*
X4302000D3*
X4556000D3*
X4810000D3*
X5064000D3*
X5318000D3*
Y1952500D3*
X5064000D3*
X4810000D3*
X4556000D3*
X4302000D3*
X4048000D3*
X3794000D3*
D40*
X5381500Y2841500D3*
D38*
Y3095500D3*
Y3349500D3*
Y3603500D3*
Y3857500D3*
Y4111500D3*
Y4365500D3*
Y4619500D3*
Y4873500D3*
Y5127500D3*
Y5381500D3*
Y5635500D3*
Y5889500D3*
Y6143500D3*
Y6397500D3*
Y6651500D3*
Y6905500D3*
Y7159500D3*
Y7413500D3*
Y7667500D3*
X3857500D3*
Y7413500D3*
Y7159500D3*
Y6905500D3*
Y6651500D3*
Y6397500D3*
Y6143500D3*
Y5889500D3*
Y5635500D3*
Y5381500D3*
Y5127500D3*
Y4873500D3*
Y4619500D3*
Y4365500D3*
Y4111500D3*
Y3857500D3*
Y3603500D3*
Y3349500D3*
Y3095500D3*
Y2841500D3*
M02*
