G04 DipTrace 3.3.1.3*
G04 BottomSilk.gbr*
%MOMM*%
G04 #@! TF.FileFunction,Legend,Bot*
G04 #@! TF.Part,Single*
%ADD51C,0.15686*%
%ADD52C,0.31373*%
%FSLAX35Y35*%
G04*
G71*
G90*
G75*
G01*
G04 BotSilk*
%LPD*%
X4551071Y6527254D2*
D51*
X4555901Y6537025D1*
X4565671Y6546684D1*
X4575330Y6551625D1*
X4589930Y6556454D1*
X4614301D1*
X4628788Y6551625D1*
X4638559Y6546684D1*
X4648217Y6537025D1*
X4653159Y6527254D1*
Y6507825D1*
X4648217Y6498167D1*
X4638559Y6488396D1*
X4628788Y6483567D1*
X4614301Y6478737D1*
X4589930D1*
X4575330Y6483567D1*
X4565671Y6488396D1*
X4555901Y6498167D1*
X4551071Y6507825D1*
Y6527254D1*
X4585101Y6447365D2*
X4653159D1*
X4614301D2*
X4599701Y6442423D1*
X4589930Y6432765D1*
X4585101Y6422994D1*
Y6408394D1*
X4551071Y6377022D2*
X4555901Y6372192D1*
X4551071Y6367251D1*
X4546130Y6372192D1*
X4551071Y6377022D1*
X4585101Y6372192D2*
X4653159D1*
X4589930Y6277591D2*
X4667759D1*
X4682247Y6282420D1*
X4687188Y6287249D1*
X4692017Y6297020D1*
Y6311620D1*
X4687188Y6321278D1*
X4604530Y6277591D2*
X4594871Y6287249D1*
X4589930Y6297020D1*
Y6311620D1*
X4594871Y6321278D1*
X4604530Y6331049D1*
X4619130Y6335878D1*
X4628901D1*
X4643388Y6331049D1*
X4653159Y6321278D1*
X4657988Y6311620D1*
Y6297020D1*
X4653159Y6287249D1*
X4643388Y6277591D1*
X4551071Y6246218D2*
X4555901Y6241389D1*
X4551071Y6236447D1*
X4546130Y6241389D1*
X4551071Y6246218D1*
X4585101Y6241389D2*
X4653159D1*
X4585101Y6205075D2*
X4653159D1*
X4604530D2*
X4589930Y6190475D1*
X4585101Y6180704D1*
Y6166216D1*
X4589930Y6156445D1*
X4604530Y6151616D1*
X4653159D1*
X4585101Y6061956D2*
X4653159D1*
X4599701D2*
X4589930Y6071614D1*
X4585101Y6081385D1*
Y6095873D1*
X4589930Y6105644D1*
X4599701Y6115302D1*
X4614301Y6120244D1*
X4623959D1*
X4638559Y6115302D1*
X4648217Y6105644D1*
X4653159Y6095873D1*
Y6081385D1*
X4648217Y6071614D1*
X4638559Y6061956D1*
X4551071Y6030583D2*
X4653159D1*
X4551071Y5842166D2*
X4653159D1*
X4599701D2*
X4589930Y5851825D1*
X4585101Y5861595D1*
Y5876195D1*
X4589930Y5885854D1*
X4599701Y5895625D1*
X4614301Y5900454D1*
X4623959D1*
X4638559Y5895625D1*
X4648217Y5885854D1*
X4653159Y5876195D1*
Y5861595D1*
X4648217Y5851825D1*
X4638559Y5842166D1*
X4614301Y5810793D2*
Y5752506D1*
X4604530D1*
X4594759Y5757335D1*
X4589930Y5762164D1*
X4585101Y5771935D1*
Y5786535D1*
X4589930Y5796193D1*
X4599701Y5805964D1*
X4614301Y5810793D1*
X4623959D1*
X4638559Y5805964D1*
X4648217Y5796193D1*
X4653159Y5786535D1*
Y5771935D1*
X4648217Y5762164D1*
X4638559Y5752506D1*
X4599701Y5667675D2*
X4589930Y5672504D1*
X4585101Y5687104D1*
Y5701704D1*
X4589930Y5716304D1*
X4599701Y5721133D1*
X4609359Y5716304D1*
X4614301Y5706533D1*
X4619130Y5682275D1*
X4623959Y5672504D1*
X4633730Y5667675D1*
X4638559D1*
X4648217Y5672504D1*
X4653159Y5687104D1*
Y5701704D1*
X4648217Y5716304D1*
X4638559Y5721133D1*
X4551071Y5636302D2*
X4555901Y5631473D1*
X4551071Y5626531D1*
X4546130Y5631473D1*
X4551071Y5636302D1*
X4585101Y5631473D2*
X4653159D1*
X4589930Y5536871D2*
X4667759D1*
X4682247Y5541700D1*
X4687188Y5546530D1*
X4692017Y5556300D1*
Y5570900D1*
X4687188Y5580559D1*
X4604530Y5536871D2*
X4594871Y5546530D1*
X4589930Y5556300D1*
Y5570900D1*
X4594871Y5580559D1*
X4604530Y5590330D1*
X4619130Y5595159D1*
X4628901D1*
X4643388Y5590330D1*
X4653159Y5580559D1*
X4657988Y5570900D1*
Y5556300D1*
X4653159Y5546530D1*
X4643388Y5536871D1*
X4585101Y5505499D2*
X4653159D1*
X4604530D2*
X4589930Y5490899D1*
X4585101Y5481128D1*
Y5466640D1*
X4589930Y5456869D1*
X4604530Y5452040D1*
X4653159D1*
X4551071Y5321911D2*
X4653159D1*
X4599701D2*
X4589930Y5312140D1*
X4585101Y5302481D1*
Y5287881D1*
X4589930Y5278223D1*
X4599701Y5268452D1*
X4614301Y5263623D1*
X4623959D1*
X4638559Y5268452D1*
X4648217Y5278223D1*
X4653159Y5287881D1*
Y5302481D1*
X4648217Y5312140D1*
X4638559Y5321911D1*
X4585101Y5227309D2*
X4653159Y5198221D1*
X4672588Y5207879D1*
X4682359Y5217650D1*
X4687188Y5227309D1*
Y5232250D1*
X4585101Y5169021D2*
X4653159Y5198221D1*
X4599701Y4980491D2*
X4589930Y4990262D1*
X4585101Y5000033D1*
Y5014521D1*
X4589930Y5024291D1*
X4599701Y5033950D1*
X4614301Y5038891D1*
X4623959D1*
X4638559Y5033950D1*
X4648217Y5024291D1*
X4653159Y5014521D1*
Y5000033D1*
X4648217Y4990262D1*
X4638559Y4980491D1*
X4551071Y4949119D2*
X4653159D1*
X4604530D2*
X4589930Y4934519D1*
X4585101Y4924748D1*
Y4910148D1*
X4589930Y4900490D1*
X4604530Y4895660D1*
X4653159D1*
X4585101Y4806000D2*
X4653159D1*
X4599701D2*
X4589930Y4815659D1*
X4585101Y4825429D1*
Y4839917D1*
X4589930Y4849688D1*
X4599701Y4859346D1*
X4614301Y4864288D1*
X4623959D1*
X4638559Y4859346D1*
X4648217Y4849688D1*
X4653159Y4839917D1*
Y4825429D1*
X4648217Y4815659D1*
X4638559Y4806000D1*
X4585101Y4774628D2*
X4653159D1*
X4614301D2*
X4599701Y4769686D1*
X4589930Y4760028D1*
X4585101Y4750257D1*
Y4735657D1*
X4551071Y4689684D2*
X4633730D1*
X4648217Y4684855D1*
X4653159Y4675084D1*
Y4665426D1*
X4585101Y4704284D2*
Y4670255D1*
X4653159Y4585424D2*
X4551184D1*
X4619130Y4634053D1*
Y4561166D1*
X4551184Y4471505D2*
Y4520022D1*
X4594871Y4524851D1*
X4590042Y4520022D1*
X4585101Y4505422D1*
Y4490934D1*
X4590042Y4476334D1*
X4599701Y4466564D1*
X4614301Y4461734D1*
X4623959D1*
X4638559Y4466564D1*
X4648330Y4476334D1*
X4653159Y4490934D1*
Y4505422D1*
X4648330Y4520022D1*
X4643388Y4524851D1*
X4633730Y4529793D1*
X4575442Y4376903D2*
Y4391503D1*
X4580271Y4401162D1*
X4585101Y4406103D1*
X4594871Y4410933D1*
X4614301D1*
X4619130Y4406103D1*
Y4396333D1*
X4614301Y4376903D1*
X4623959Y4372074D1*
Y4367245D1*
X4614301Y4357474D1*
X4590042Y4352645D1*
X4575442Y4357474D1*
X4565671Y4362303D1*
X4556013Y4372074D1*
X4551184Y4381733D1*
Y4401162D1*
X4556013Y4410933D1*
X4565671Y4420591D1*
X4575442Y4425533D1*
X4590042Y4430362D1*
X4614301D1*
X4628901Y4425533D1*
X4638559Y4420591D1*
X4648330Y4410933D1*
X4653159Y4401162D1*
Y4381733D1*
X4648330Y4372074D1*
X4638559Y4362303D1*
X4570613Y4376903D2*
X4614301D1*
X4551071Y4321272D2*
X4653159D1*
X4551071Y4289900D2*
X4555901Y4285071D1*
X4551071Y4280129D1*
X4546130Y4285071D1*
X4551071Y4289900D1*
X4585101Y4285071D2*
X4653159D1*
X4585101Y4248757D2*
X4653159Y4219557D1*
X4585101Y4190469D1*
X4614301Y4159096D2*
Y4100809D1*
X4604530D1*
X4594759Y4105638D1*
X4589930Y4110467D1*
X4585101Y4120238D1*
Y4134838D1*
X4589930Y4144496D1*
X4599701Y4154267D1*
X4614301Y4159096D1*
X4623959D1*
X4638559Y4154267D1*
X4648217Y4144496D1*
X4653159Y4134838D1*
Y4120238D1*
X4648218Y4110467D1*
X4638559Y4100809D1*
X4643388Y4064607D2*
X4648330Y4069436D1*
X4653159Y4064607D1*
X4648330Y4059665D1*
X4643388Y4064607D1*
X4599701Y3969893D2*
X4589930Y3979664D1*
X4585101Y3989434D1*
Y4003922D1*
X4589930Y4013693D1*
X4599701Y4023351D1*
X4614301Y4028293D1*
X4623959D1*
X4638559Y4023351D1*
X4648218Y4013693D1*
X4653159Y4003922D1*
Y3989434D1*
X4648218Y3979664D1*
X4638559Y3969893D1*
X4585101Y3880233D2*
X4653159D1*
X4599701D2*
X4589930Y3889891D1*
X4585101Y3899662D1*
Y3914150D1*
X4589930Y3923921D1*
X4599701Y3933579D1*
X4614301Y3938520D1*
X4623959D1*
X4638559Y3933579D1*
X4648218Y3923920D1*
X4653159Y3914150D1*
Y3899662D1*
X4648218Y3889891D1*
X4638559Y3880233D1*
X4807351Y6021250D2*
X4875409D1*
X4836551D2*
X4821951Y6016308D1*
X4812180Y6006650D1*
X4807351Y5996879D1*
Y5982279D1*
X4836551Y5950906D2*
Y5892619D1*
X4826780D1*
X4817009Y5897448D1*
X4812180Y5902277D1*
X4807351Y5912048D1*
Y5926648D1*
X4812180Y5936306D1*
X4821951Y5946077D1*
X4836551Y5950906D1*
X4846209D1*
X4860809Y5946077D1*
X4870467Y5936306D1*
X4875409Y5926648D1*
Y5912048D1*
X4870467Y5902277D1*
X4860809Y5892619D1*
X4773321Y5802958D2*
X4875409D1*
X4821951D2*
X4812180Y5812617D1*
X4807351Y5822388D1*
Y5836988D1*
X4812180Y5846646D1*
X4821951Y5856417D1*
X4836551Y5861246D1*
X4846209D1*
X4860809Y5856417D1*
X4870467Y5846646D1*
X4875409Y5836988D1*
Y5822388D1*
X4870467Y5812617D1*
X4860809Y5802958D1*
X4807351Y5771586D2*
X4855980D1*
X4870467Y5766757D1*
X4875409Y5756986D1*
Y5742386D1*
X4870467Y5732727D1*
X4855980Y5718127D1*
X4807351D2*
X4875409D1*
X4807351Y5686755D2*
X4875409Y5633296D1*
X4807351D2*
X4875409Y5686755D1*
X4773321Y5503167D2*
X4875409D1*
X4821951D2*
X4812180Y5493396D1*
X4807351Y5483738D1*
Y5469138D1*
X4812180Y5459479D1*
X4821951Y5449708D1*
X4836551Y5444879D1*
X4846209D1*
X4860809Y5449708D1*
X4870467Y5459479D1*
X4875409Y5469138D1*
Y5483738D1*
X4870467Y5493396D1*
X4860809Y5503167D1*
X4807351Y5408565D2*
X4875409Y5379477D1*
X4894838Y5389136D1*
X4904609Y5398907D1*
X4909438Y5408565D1*
Y5413507D1*
X4807351Y5350277D2*
X4875409Y5379477D1*
X4797692Y5166689D2*
Y5181289D1*
X4802521Y5190948D1*
X4807351Y5195889D1*
X4817121Y5200718D1*
X4836551D1*
X4841380Y5195889D1*
Y5186118D1*
X4836551Y5166689D1*
X4846209Y5161860D1*
Y5157031D1*
X4836551Y5147260D1*
X4812292Y5142431D1*
X4797692Y5147260D1*
X4787921Y5152089D1*
X4778263Y5161860D1*
X4773434Y5171518D1*
Y5190948D1*
X4778263Y5200718D1*
X4787921Y5210377D1*
X4797692Y5215318D1*
X4812292Y5220148D1*
X4836551D1*
X4851151Y5215318D1*
X4860809Y5210377D1*
X4870580Y5200718D1*
X4875409Y5190948D1*
Y5171518D1*
X4870580Y5161860D1*
X4860809Y5152089D1*
X4792863Y5166689D2*
X4836551D1*
X4807351Y5111058D2*
X4875409D1*
X4826780D2*
X4812180Y5096458D1*
X4807351Y5086687D1*
Y5072200D1*
X4812180Y5062429D1*
X4826780Y5057600D1*
X4875409D1*
X4826780D2*
X4812180Y5043000D1*
X4807351Y5033229D1*
Y5018741D1*
X4812180Y5008970D1*
X4826780Y5004029D1*
X4875409D1*
X4807351Y4948398D2*
X4812180Y4958056D1*
X4821951Y4967827D1*
X4836551Y4972656D1*
X4846209D1*
X4860809Y4967827D1*
X4870467Y4958056D1*
X4875409Y4948398D1*
Y4933798D1*
X4870467Y4924027D1*
X4860809Y4914369D1*
X4846209Y4909427D1*
X4836551D1*
X4821951Y4914369D1*
X4812180Y4924027D1*
X4807351Y4933798D1*
Y4948398D1*
Y4878055D2*
Y4824596D1*
X4875409Y4878055D1*
Y4824596D1*
X4807351Y4793224D2*
Y4739765D1*
X4875409Y4793224D1*
Y4739765D1*
X4807351Y4708393D2*
X4875409Y4688963D1*
X4807351Y4669534D1*
X4875409Y4650105D1*
X4807351Y4630676D1*
Y4541015D2*
X4875409D1*
X4821951D2*
X4812180Y4550674D1*
X4807351Y4560445D1*
Y4574932D1*
X4812180Y4584703D1*
X4821951Y4594362D1*
X4836551Y4599303D1*
X4846209D1*
X4860809Y4594362D1*
X4870468Y4584703D1*
X4875409Y4574932D1*
Y4560445D1*
X4870468Y4550674D1*
X4860809Y4541015D1*
X4773321Y4509643D2*
X4875409D1*
X4773321Y4419983D2*
X4875409D1*
X4821951D2*
X4812180Y4429641D1*
X4807351Y4439412D1*
Y4454012D1*
X4812180Y4463671D1*
X4821951Y4473441D1*
X4836551Y4478270D1*
X4846209D1*
X4860809Y4473441D1*
X4870468Y4463670D1*
X4875409Y4454012D1*
Y4439412D1*
X4870468Y4429641D1*
X4860809Y4419983D1*
X4168897Y7429934D2*
D52*
X4149580Y7439593D1*
X4130038Y7459134D1*
X4120380Y7478451D1*
Y7517310D1*
X4130038Y7536851D1*
X4149580Y7556168D1*
X4168897Y7566051D1*
X4198097Y7575710D1*
X4246838D1*
X4275814Y7566051D1*
X4295355Y7556168D1*
X4314672Y7536851D1*
X4324555Y7517310D1*
Y7478451D1*
X4314672Y7459134D1*
X4295355Y7439593D1*
X4275814Y7429934D1*
X4188438Y7318672D2*
X4198097Y7337989D1*
X4217638Y7357531D1*
X4246838Y7367189D1*
X4266155D1*
X4295355Y7357531D1*
X4314672Y7337989D1*
X4324555Y7318672D1*
Y7289472D1*
X4314672Y7269931D1*
X4295355Y7250614D1*
X4266155Y7240731D1*
X4246838D1*
X4217638Y7250614D1*
X4198097Y7269931D1*
X4188438Y7289472D1*
Y7318672D1*
X4120380Y7177986D2*
X4324555D1*
X4246838Y7115241D2*
Y6998665D1*
X4227297D1*
X4207755Y7008324D1*
X4198097Y7017982D1*
X4188438Y7037524D1*
Y7066724D1*
X4198097Y7086041D1*
X4217638Y7105582D1*
X4246838Y7115241D1*
X4266155D1*
X4295355Y7105582D1*
X4314672Y7086041D1*
X4324555Y7066724D1*
Y7037524D1*
X4314672Y7017982D1*
X4295355Y6998665D1*
X4217638Y6819120D2*
X4198097Y6838662D1*
X4188438Y6858203D1*
Y6887179D1*
X4198097Y6906720D1*
X4217638Y6926037D1*
X4246838Y6935920D1*
X4266155D1*
X4295355Y6926037D1*
X4314672Y6906720D1*
X4324555Y6887179D1*
Y6858203D1*
X4314672Y6838662D1*
X4295355Y6819120D1*
X4188438Y6707858D2*
X4198097Y6727175D1*
X4217638Y6746717D1*
X4246838Y6756375D1*
X4266155D1*
X4295355Y6746717D1*
X4314672Y6727175D1*
X4324555Y6707858D1*
Y6678658D1*
X4314672Y6659117D1*
X4295355Y6639800D1*
X4266155Y6629917D1*
X4246838D1*
X4217638Y6639800D1*
X4198097Y6659117D1*
X4188438Y6678658D1*
Y6707858D1*
X4324555Y6213999D2*
X4120380Y6291940D1*
X4324555Y6369657D1*
X4256497Y6340457D2*
Y6243199D1*
X4120380Y6151254D2*
X4324555D1*
Y6083195D1*
X4314672Y6053995D1*
X4295355Y6034454D1*
X4275814Y6024795D1*
X4246838Y6015137D1*
X4198097D1*
X4168897Y6024795D1*
X4149580Y6034454D1*
X4130038Y6053995D1*
X4120380Y6083195D1*
Y6151254D1*
X4324555Y5796733D2*
X4120380Y5874675D1*
X4324555Y5952392D1*
X4256497Y5923192D2*
Y5825933D1*
X4324555Y5578554D2*
X4120380D1*
X4324555Y5656271D1*
X4120380Y5733988D1*
X4324555D1*
X4149580Y5182178D2*
X4130038Y5201495D1*
X4120380Y5230695D1*
Y5269553D1*
X4130038Y5298753D1*
X4149580Y5318295D1*
X4168897D1*
X4188438Y5308412D1*
X4198097Y5298753D1*
X4207755Y5279436D1*
X4227297Y5221036D1*
X4236955Y5201495D1*
X4246838Y5191836D1*
X4266155Y5182178D1*
X4295355D1*
X4314672Y5201495D1*
X4324555Y5230695D1*
Y5269553D1*
X4314672Y5298753D1*
X4295355Y5318295D1*
X4188438Y5070916D2*
X4198097Y5090233D1*
X4217638Y5109774D1*
X4246838Y5119433D1*
X4266155D1*
X4295355Y5109774D1*
X4314672Y5090233D1*
X4324555Y5070916D1*
Y5041716D1*
X4314672Y5022174D1*
X4295355Y5002857D1*
X4266155Y4992974D1*
X4246838D1*
X4217638Y5002857D1*
X4198097Y5022174D1*
X4188438Y5041716D1*
Y5070916D1*
Y4930229D2*
X4285697D1*
X4314672Y4920571D1*
X4324555Y4901029D1*
Y4871829D1*
X4314672Y4852512D1*
X4285697Y4823312D1*
X4188438D2*
X4324555D1*
X4188438Y4760567D2*
X4324555D1*
X4227297D2*
X4198097Y4731367D1*
X4188438Y4711826D1*
Y4682850D1*
X4198097Y4663309D1*
X4227297Y4653650D1*
X4324555D1*
X4120380Y4474330D2*
X4324555D1*
X4217638D2*
X4198097Y4493647D1*
X4188438Y4513188D1*
Y4542388D1*
X4198097Y4561705D1*
X4217638Y4581247D1*
X4246838Y4590905D1*
X4266155D1*
X4295355Y4581247D1*
X4314672Y4561705D1*
X4324555Y4542388D1*
Y4513188D1*
X4314672Y4493647D1*
X4295355Y4474330D1*
X4120380Y4087837D2*
Y4214070D1*
X4324555D1*
Y4087837D1*
X4217638Y4214070D2*
Y4136353D1*
X4188438Y4025091D2*
X4324555D1*
X4227297D2*
X4198097Y3995891D1*
X4188438Y3976350D1*
Y3947375D1*
X4198097Y3927833D1*
X4227297Y3918175D1*
X4324555Y3918174D1*
X4120380Y3855429D2*
X4324555D1*
X4227297D2*
X4198097Y3826229D1*
X4188438Y3806688D1*
Y3777488D1*
X4198097Y3758171D1*
X4227297Y3748512D1*
X4324555D1*
X4188438Y3569192D2*
X4324555D1*
X4217638D2*
X4198097Y3588509D1*
X4188438Y3608050D1*
Y3637026D1*
X4198097Y3656567D1*
X4217638Y3675884D1*
X4246838Y3685767D1*
X4266155D1*
X4295355Y3675884D1*
X4314672Y3656567D1*
X4324555Y3637026D1*
Y3608050D1*
X4314672Y3588509D1*
X4295355Y3569192D1*
X4188439Y3506447D2*
X4324555D1*
X4227297D2*
X4198097Y3477247D1*
X4188439Y3457705D1*
Y3428730D1*
X4198097Y3409188D1*
X4227297Y3399530D1*
X4324555D1*
X4217639Y3219985D2*
X4198097Y3239526D1*
X4188439Y3259068D1*
Y3288043D1*
X4198097Y3307585D1*
X4217639Y3326902D1*
X4246839Y3336785D1*
X4266155D1*
X4295355Y3326902D1*
X4314672Y3307585D1*
X4324555Y3288043D1*
Y3259068D1*
X4314672Y3239526D1*
X4295355Y3219985D1*
X4246839Y3157240D2*
Y3040665D1*
X4227297D1*
X4207755Y3050323D1*
X4198097Y3059982D1*
X4188439Y3079523D1*
Y3108723D1*
X4198097Y3128040D1*
X4217639Y3147581D1*
X4246839Y3157240D1*
X4266155D1*
X4295355Y3147581D1*
X4314672Y3128040D1*
X4324555Y3108723D1*
Y3079523D1*
X4314672Y3059981D1*
X4295355Y3040665D1*
X4188439Y2977920D2*
X4324555Y2977919D1*
X4246839Y2977920D2*
X4217639Y2968037D1*
X4198097Y2948720D1*
X4188438Y2929178D1*
Y2899978D1*
X5053800Y5696370D2*
D51*
X5048970D1*
X5039200Y5691541D1*
X5034370Y5686712D1*
X5029541Y5676941D1*
Y5657512D1*
X5034370Y5647853D1*
X5039200Y5643024D1*
X5048970Y5638083D1*
X5058629D1*
X5068400Y5643024D1*
X5082887Y5652683D1*
X5131516Y5701312D1*
Y5633253D1*
X5029541Y5572681D2*
X5034370Y5587281D1*
X5048970Y5597052D1*
X5073229Y5601881D1*
X5087829D1*
X5112087Y5597052D1*
X5126687Y5587281D1*
X5131516Y5572681D1*
Y5563022D1*
X5126687Y5548422D1*
X5112087Y5538764D1*
X5087829Y5533822D1*
X5073229D1*
X5048970Y5538764D1*
X5034370Y5548422D1*
X5029541Y5563022D1*
Y5572681D1*
X5048970Y5538764D2*
X5112087Y5597052D1*
X5053800Y5497508D2*
X5048970D1*
X5039200Y5492679D1*
X5034370Y5487850D1*
X5029541Y5478079D1*
Y5458650D1*
X5034370Y5448991D1*
X5039200Y5444162D1*
X5048970Y5439221D1*
X5058629D1*
X5068400Y5444162D1*
X5082887Y5453821D1*
X5131516Y5502450D1*
Y5434391D1*
X5053800Y5398077D2*
X5048970D1*
X5039200Y5393248D1*
X5034370Y5388419D1*
X5029541Y5378648D1*
Y5359219D1*
X5034370Y5349560D1*
X5039200Y5344731D1*
X5048970Y5339790D1*
X5058629D1*
X5068400Y5344731D1*
X5082887Y5354390D1*
X5131516Y5403019D1*
Y5334960D1*
X5080529Y5303588D2*
Y5247434D1*
X5029541Y5186861D2*
X5034370Y5201461D1*
X5048970Y5211232D1*
X5073229Y5216061D1*
X5087829D1*
X5112087Y5211232D1*
X5126687Y5201461D1*
X5131517Y5186861D1*
Y5177203D1*
X5126687Y5162603D1*
X5112087Y5152945D1*
X5087829Y5148003D1*
X5073229D1*
X5048970Y5152945D1*
X5034370Y5162603D1*
X5029541Y5177203D1*
Y5186861D1*
X5048970Y5152945D2*
X5112087Y5211232D1*
X5044029Y5058343D2*
X5034370Y5063172D1*
X5029541Y5077772D1*
Y5087430D1*
X5034370Y5102030D1*
X5048970Y5111801D1*
X5073229Y5116630D1*
X5097487D1*
X5116917Y5111801D1*
X5126687Y5102030D1*
X5131517Y5087430D1*
Y5082601D1*
X5126687Y5068113D1*
X5116917Y5058343D1*
X5102317Y5053514D1*
X5097487D1*
X5082887Y5058343D1*
X5073229Y5068114D1*
X5068400Y5082601D1*
Y5087430D1*
X5073229Y5102030D1*
X5082887Y5111801D1*
X5097487Y5116630D1*
X5080529Y5022141D2*
Y4965987D1*
X5029541Y4924844D2*
Y4871498D1*
X5068400Y4900585D1*
Y4885985D1*
X5073229Y4876327D1*
X5078058Y4871498D1*
X5092658Y4866556D1*
X5102317D1*
X5116917Y4871498D1*
X5126687Y4881156D1*
X5131517Y4895756D1*
Y4910356D1*
X5126687Y4924844D1*
X5121746Y4929673D1*
X5112087Y4934615D1*
X5029541Y4805984D2*
X5034370Y4820584D1*
X5048970Y4830355D1*
X5073229Y4835184D1*
X5087829D1*
X5112087Y4830354D1*
X5126687Y4820584D1*
X5131517Y4805984D1*
Y4796325D1*
X5126687Y4781725D1*
X5112087Y4772067D1*
X5087829Y4767125D1*
X5073229D1*
X5048970Y4772067D1*
X5034370Y4781725D1*
X5029541Y4796325D1*
Y4805984D1*
X5048970Y4772067D2*
X5112087Y4830354D1*
M02*
