M48
METRIC,0000.00
T01C0.4
T02C0.711
T03C0.9
T04C0.95
T05C0.965
T06C1.0
T07C3.25
%
T01
X+002320Y+004403
X+002088Y+007392
T02
X+005127Y+008620
X+005381Y+008620
T03
X+002524Y+008938
X+002778Y+008938
X+002461Y+007794
X+002461Y+007540
X+002461Y+007286
X+002461Y+007033
X+002461Y+006778
X+002461Y+006524
X+002461Y+006270
X+003223Y+006270
X+003223Y+006524
X+003223Y+006778
X+003223Y+007033
X+003223Y+007286
X+003223Y+007540
X+003223Y+007794
X+003857Y+007667
X+003857Y+007413
X+003857Y+007159
X+003857Y+006905
X+003857Y+006652
X+003857Y+006397
X+003857Y+006143
X+003857Y+005890
X+003857Y+005635
X+003857Y+005381
X+003857Y+005127
X+003857Y+004873
X+003857Y+004619
X+003857Y+004365
X+003857Y+004111
X+003857Y+003857
X+003857Y+003603
X+003857Y+003349
X+003857Y+003095
X+003857Y+002841
X+003223Y+002841
X+003223Y+002588
X+003223Y+002333
X+003223Y+002079
X+003223Y+001825
X+003223Y+001571
X+003223Y+001317
X+003794Y+001190
X+004048Y+001190
X+004302Y+001190
X+004556Y+001190
X+004810Y+001190
X+005064Y+001190
X+005318Y+001190
X+005318Y+001952
X+005064Y+001952
X+004810Y+001952
X+004556Y+001952
X+004302Y+001952
X+004048Y+001952
X+003794Y+001952
X+002461Y+001825
X+002461Y+001571
X+002461Y+001317
X+002461Y+002079
X+002461Y+002333
X+002461Y+002588
X+002461Y+002841
X+002461Y+003667
X+002461Y+003921
X+002461Y+004175
X+002461Y+004429
X+002461Y+004683
X+002461Y+004937
X+002461Y+005191
X+002461Y+005445
X+003223Y+005445
X+003223Y+005191
X+003223Y+004937
X+003223Y+004683
X+003223Y+004429
X+003223Y+004175
X+003223Y+003921
X+003223Y+003667
X+005381Y+003603
X+005381Y+003349
X+005381Y+003095
X+005381Y+002841
X+005381Y+003857
X+005381Y+004111
X+005381Y+004365
X+005381Y+004619
X+005381Y+004873
X+005381Y+005127
X+005381Y+005381
X+005381Y+005635
X+005381Y+005890
X+005381Y+006143
X+005381Y+006397
X+005381Y+006652
X+005381Y+006905
X+005381Y+007159
X+005381Y+007413
X+005381Y+007667
T04
X+001964Y+001444
X+001964Y+001698
X+001964Y+001952
X+001964Y+002206
X+001964Y+002460
X+001964Y+002714
X+001964Y+002968
X+001964Y+003222
X+001964Y+003476
X+001964Y+003730
X+001964Y+003984
X+001964Y+004238
X+001964Y+004492
X+001964Y+004746
X+001964Y+005000
X+001964Y+005254
X+001964Y+005508
X+001964Y+005762
X+001964Y+006016
X+001964Y+006270
X+001964Y+006524
X+001964Y+006778
X+001964Y+007032
X+001964Y+007286
X+001964Y+007540
X+001964Y+007794
X+001964Y+008048
X+001964Y+008302
X+001964Y+008556
X+001964Y+008810
X+001456Y+008810
X+001456Y+008556
X+001456Y+008302
X+001456Y+008048
X+001456Y+007794
X+001456Y+007540
X+001456Y+007286
X+001456Y+007032
X+001456Y+006778
X+001456Y+006524
X+001456Y+006270
X+001456Y+006016
X+001456Y+005762
X+001456Y+005508
X+001456Y+005254
X+001456Y+005000
X+001456Y+004746
X+001456Y+004492
X+001456Y+004238
X+001456Y+003984
X+001456Y+003730
X+001456Y+003476
X+001456Y+003222
X+001456Y+002968
X+001456Y+002714
X+001456Y+002460
X+001456Y+002206
X+001456Y+001952
X+001456Y+001698
X+001456Y+001444
T05
X+004747Y+008874
X+004747Y+008556
X+005113Y+008041
X+004097Y+008041
X+003730Y+008556
X+003730Y+008874
T06
X+002714Y+003286
X+002968Y+003286
X+004175Y+002334
X+004429Y+002334
X+002968Y+005826
X+002714Y+005826
X+002778Y+008239
X+002524Y+008239
X+003222Y+008557
X+003222Y+008811
T07
X+003636Y+002332
X+003636Y+008132
T00
M30
